<svg xmlns="http://www.w3.org/2000/svg" version="1.1" xmlns:xlink="http://www.w3.org/1999/xlink" width="161.4" height="177.3"><svg version="1.1" id="SvgjsSvg1007" xmlns="http://www.w3.org/2000/svg" xmlns:xlink="http://www.w3.org/1999/xlink" x="0px" y="0px" viewBox="0 0 161.4 177.3" style="enable-background:new 0 0 161.4 177.3;" xml:space="preserve">
<style type="text/css">
	.Drop_x0020_Shadow{fill:none;}
	.Round_x0020_Corners_x0020_2_x0020_pt{fill:#FFFFFF;stroke:#000000;stroke-miterlimit:10;}
	.Live_x0020_Reflect_x0020_X{fill:none;}
	.Bevel_x0020_Soft{fill:url(#SVGID_1_);}
	.Dusk{fill:#FFFFFF;}
	.Foliage_GS{fill:#FFDD00;}
	.Pompadour_GS{fill-rule:evenodd;clip-rule:evenodd;fill:#44ADE2;}
	.st0{fill:#D0A151;}
	.st1{fill:#FFFFFF;}
	.st2{fill:#CAA45D;}
	.st3{fill:#07456B;}
</style>
<linearGradient id="SvgjsLinearGradient1006" gradientUnits="userSpaceOnUse" x1="-260.686" y1="151.7496" x2="-259.9789" y2="152.4567">
	<stop offset="0" style="stop-color:#DEDFE3"></stop>
	<stop offset="0.1738" style="stop-color:#D8D9DD"></stop>
	<stop offset="0.352" style="stop-color:#C9CACD"></stop>
	<stop offset="0.5323" style="stop-color:#B4B5B8"></stop>
	<stop offset="0.7139" style="stop-color:#989A9C"></stop>
	<stop offset="0.8949" style="stop-color:#797C7E"></stop>
	<stop offset="1" style="stop-color:#656B6C"></stop>
</linearGradient>
<g>
	<path class="st0" d="M148,42l-0.5-0.4L86.4,0l0,0l0,0L18.6,49.1c-6.4,5.5-10.1,13.5-10.1,22l1.9,28.2l0,0l1.4-28.2
		c0-7.5,3.3-14.7,8.9-19.5l49.9-36.1l63.7,43.4c3.4,3.1,5.4,7.5,5.4,12.2v101h21.8v-101C161.4,59.9,156.5,49.3,148,42z"></path>
	<g>
		<g>
			<g>
				<path class="st3" d="M35.1,94.4h-0.2c-0.4,0.2-1.4,2-2.9,5.5c-0.2,1.1-0.4,1.8-0.5,1.9c-2.1,3.2-3.2,5.6-3.3,7.2v0.7
					c0.1,1.2,0.7,1.7,1.6,1.7c1.4,0,2.9-0.9,4.4-2.6c2.6-3.4,3.9-6.5,3.9-9.2v-0.1C38.2,97.3,37.1,95.6,35.1,94.4z M31.4,107.2
					c-0.7,0-1-0.4-1.2-1.2c0-1,0.6-2.4,1.8-4.1h0.1c1.7,1.1,2.5,2,2.5,2.8C34.7,106.1,33.6,106.9,31.4,107.2z"></path>
				<path class="st3" d="M123.3,91.8c0.3-4.1,0.5-6.5,0.7-7.2c0.1-0.7,0.2-1.1,0.1-1.2c0-0.1-0.1-0.2-0.2-0.1
					c-0.3,0.4-0.8,1.5-1.5,3.5c-0.7,2-1.1,3.5-1.3,4.5c-0.1,0.9-0.2,2.5-0.3,4.8c-0.1,2.3-0.3,4-0.4,5.1c-0.5,2.9-2.3,5.5-5.4,7.9
					c-1.7,1.3-2.6,2.1-2.6,2.2c0.4,0.1,1.1,0.1,2.2,0c1.1-0.1,2-0.5,2.9-1.1c1.9-2,3.5-5.3,4.8-10C122.6,98.8,123,95.9,123.3,91.8z"></path>
				<path class="st3" d="M129.8,91.6c-0.5,0.3-1.7,2.5-3.6,6.6c2.2,1.6,3.3,3.1,3.3,4.7v0.6c-0.1,0.6-1.2,1.9-3.4,3.6
					c-3,2.2-4.5,3.7-4.5,4.5c0.1,0.3,0.3,0.5,0.7,0.5h0.1c0.3,0,0.5,0,0.7-0.1c2.7-0.7,4.8-2.3,6.4-4.6c2.3-3.8,3.4-6.8,3.4-9.3V97
					C132.9,94.6,131.9,92.8,129.8,91.6z"></path>
				<path class="st3" d="M114.9,89.4c0.4-0.4,0.8-0.6,1.2-0.8c0.4-0.2,0.7-0.3,1-0.3c0.3,0,0.6,0,0.8,0c0.2,0.1,0.4,0.1,0.6,0.2
					c0.3-0.7,0.5-1.3,0.6-2c0-0.7-0.1-1.4-0.6-2.1c-0.1,0-0.3-0.1-0.7-0.2c-0.3-0.1-0.7,0-1.1,0.2c-0.2,0.1-0.4,0.2-0.8,0.4
					c-0.4,0.2-0.8,0.5-1.3,0.8c-0.5,0.3-1.1,0.7-1.6,1c-0.6,0.4-1.2,0.8-1.8,1.1c-0.6,0.4-1.2,0.8-1.8,1.1s-1.1,0.7-1.6,0.9
					c-1.9,1.1-3.7,2.2-5.6,3.1c-1.9,1-3.7,1.9-5.7,2.7c-2.1,0.9-4.3,1.8-6.6,2.5c-2.2,0.7-4.5,1.3-6.9,1.8c-2.4,0.5-4.9,0.9-7.5,1.2
					c-2.5,0.3-5.1,0.4-7.8,0.5c-3,0-5.6-0.2-7.9-0.6c-2.4-0.5-4.2-0.8-5.6-1.1c-1.3-0.3-2.7-0.7-4.1-1.1l-2.4-0.6
					c-0.3-0.1-0.6-0.3-0.9-0.4c-0.2-0.1-0.5-0.2-0.7-0.2c-1.4-0.3-2.3-0.3-2.8-0.2c0.2-0.8,0.4-1.6,0.6-2.6c0.2-0.8,0.2-1.3,0-1.3
					c-0.5,0-1.1,1.1-1.8,3.2c-0.7,2-1.1,4.2-1.3,6.4c0,1.1,0,1.9,0,2.3c0,0.1,0,0.2,0,0.2c0,1.8,0.4,3.2,1,4.2
					c0.6,1,1.5,1.5,2.5,1.5c1.7,0,3.2-0.8,4.3-2.5c0.5-0.8,1.1-2.2,1.9-4.3c0-0.1,0-0.1,0.1-0.2l0.1,0.1c2.4,1.9,4.9,3.2,7.5,3.9
					c2.3,0.6,4.4,0.9,6.2,1c0,0,0,0,0,0c3.6,0,7.2-0.3,10.7-0.9c3.5-0.6,7-1.4,10.3-2.6c3.4-1.1,6.6-2.5,9.8-4.1
					c3.2-1.6,6.3-3.4,9.2-5.5c0.8-0.5,1.6-1.1,2.5-1.7c0.9-0.6,1.8-1.2,2.7-1.8c0.9-0.6,1.8-1.2,2.7-1.9
					C113.3,90.6,114.1,90,114.9,89.4z M49.7,102.7c-0.1,0.6-0.5,1.2-1.1,1.8c-0.8,0.8-1.7,1.2-2.8,1.2c-1,0-1.7-0.4-2.2-1.2
					c-0.3-0.6-0.5-1.3-0.5-2c0-1.1,0.4-1.8,1.1-2.1c0.3-0.1,0.7-0.2,1.3-0.2c0.9,0,1.6,0.1,2.3,0.3c0.3,0.1,0.6,0.2,0.9,0.3
					c0.7,0.3,1,0.8,1,1.4C49.8,102.3,49.7,102.5,49.7,102.7z"></path>
				<path class="st3" d="M78.9,84.5l-3.9,6c-0.1,0.1-0.1,0.3-0.1,0.3c0,0.1,0.1,0.2,0.2,0.3c0.2,0.1,0.4,0.2,0.5,0.4
					c0.2,0.1,0.4,0.3,0.5,0.4l0.2,0.1l1.5,1.2l0.3,0.2l0.6,0.5c0,0,0.1,0.1,0.1,0.1c0,0,0.1,0.1,0.2,0.1c0.2,0,0.5-0.1,0.9-0.4
					l0.1-0.1l0.2-0.2c0.2-0.1,0.3-0.3,0.5-0.4c0.1-0.2,0.3-0.3,0.4-0.5c0.1-0.1,0.2-0.3,0.3-0.4c0.1-0.1,0.2-0.3,0.3-0.4L82,91
					l0.3-0.5l0.2-0.3c0,0,0.1-0.1,0.1-0.1c0,0,0-0.1,0-0.1l0.1-0.2l0.1-0.3c0,0,0-0.1,0-0.1c0,0,0-0.1,0-0.1
					c0.1-0.3,0.1-0.6,0.1-0.9c0,0,0-0.1,0-0.1c0,0,0,0,0-0.1c0,0,0-0.1,0-0.1c0,0,0-0.1,0-0.1c0,0,0-0.1,0-0.1l-0.1-0.2
					c0-0.1-0.1-0.2-0.1-0.2s-0.1-0.1-0.1-0.2l0-0.1l-0.2-0.4l-0.1-0.2c-0.1-0.2-0.3-0.3-0.4-0.5c-0.2-0.2-0.3-0.3-0.5-0.5l-0.3-0.2
					c-0.2-0.2-0.4-0.3-0.7-0.5c-0.2-0.1-0.4-0.3-0.7-0.4c0,0-0.1,0-0.1-0.1c-0.1,0-0.1,0-0.1,0l0,0C79.1,84.2,79,84.3,78.9,84.5z"></path>
				<path class="st3" d="M81.2,82.6c0.6,0.5,1.2,1,1.8,1.5c0.1,0,0.1,0.1,0.2,0.1c0.1,0,0.2,0,0.3,0c0.1,0,0.3-0.1,0.4-0.2
					c0.2-0.1,0.4-0.3,0.6-0.5c0.4-0.3,0.7-0.7,1-1.1c0.3-0.4,0.6-0.8,0.9-1.3c0.4-0.6,0.6-1.1,0.8-1.6c0.1-0.5,0.1-1,0-1.5
					c-0.1-0.4-0.3-0.8-0.5-1.1c-0.2-0.3-0.5-0.7-0.8-0.9c-0.3-0.3-0.6-0.6-1-0.8c-0.3-0.2-0.7-0.5-1-0.7c-0.1-0.1-0.2-0.1-0.4-0.1
					s-0.2,0.1-0.3,0.2l-3.9,6c-0.1,0.1-0.1,0.2-0.1,0.3c0,0.1,0,0.1,0.1,0.3C80,81.7,80.6,82.1,81.2,82.6z"></path>
				<path class="st3" d="M84.7,91.9c0.6,0.5,1.2,1,1.8,1.5c0.1,0,0.1,0.1,0.2,0.1s0.2,0,0.3,0c0.1,0,0.3-0.1,0.4-0.2
					c0.2-0.1,0.4-0.3,0.6-0.5c0.4-0.3,0.7-0.7,1-1.1c0.3-0.4,0.6-0.8,0.9-1.3c0.4-0.6,0.6-1.1,0.8-1.6c0.1-0.5,0.1-1,0-1.5
					c-0.1-0.4-0.3-0.8-0.5-1.1c-0.2-0.3-0.5-0.7-0.8-0.9c-0.3-0.3-0.6-0.6-1-0.8c-0.3-0.2-0.7-0.5-1-0.7c-0.1-0.1-0.2-0.1-0.4-0.1
					c-0.1,0-0.2,0.1-0.4,0.2l-3.9,6c-0.1,0.1-0.1,0.2-0.1,0.3c0,0.1,0.1,0.1,0.1,0.3C83.5,91,84.2,91.4,84.7,91.9z"></path>
				<path class="st3" d="M112.3,77.7c0.6,0.5,1.1,1,1.7,1.4c0.1,0.1,0.2,0.1,0.4,0.1c0.2-0.1,0.4-0.1,0.6-0.3
					c0.2-0.1,0.4-0.3,0.6-0.4c0.2-0.1,0.3-0.3,0.4-0.4c0.3-0.3,0.5-0.6,0.8-0.9c0.2-0.3,0.5-0.6,0.7-1c0.4-0.5,0.6-1.1,0.8-1.6
					c0.1-0.5,0.1-1,0-1.4c-0.1-0.4-0.3-0.8-0.5-1.1c-0.2-0.3-0.5-0.6-0.8-0.9c-0.3-0.3-0.6-0.5-0.9-0.8c-0.3-0.2-0.7-0.5-1-0.7
					c-0.1-0.1-0.2-0.1-0.4-0.1c-0.1,0-0.2,0.1-0.3,0.2l-3.9,5.9c-0.1,0.1-0.1,0.3-0.1,0.3c0,0.1,0,0.1,0.2,0.2
					C111.1,76.8,111.7,77.2,112.3,77.7z"></path>
				<path class="st3" d="M47,94.1c1.3-1.3,2.9-2.7,4.8-4.2c2-1.5,8.5-5.6,19.7-12.4C82.8,70.7,89.9,65.9,93.1,63
					c1.1-1,1.8-2.2,2.2-3.7c0-0.2,0-0.2-0.1-0.2s-0.9,0.7-2.4,2.2c-1.5,1.5-7.9,5.6-19.1,12.2c-11.2,6.6-18.2,11-21.1,13.2
					c-2.8,2.2-4.8,4.1-6,5.8c-1.1,1.7-1.7,2.7-1.8,3.1c-0.1,0.4,0,0.5,0.1,0.5C45.1,96.1,45.8,95.4,47,94.1z"></path>
				<path class="st3" d="M67.5,74.5c0.5-0.2,2.5-1.2,6-3.1c3.5-1.9,6.8-4,10-6.3c3.2-2.3,4.9-3.9,4.9-4.7c-0.3-0.2-0.9,0.2-2,1
					c-7.2,4.9-12.3,8.3-15.3,10.2c-2.9,1.9-4.4,2.9-4.4,3.1C66.7,74.7,67,74.7,67.5,74.5z"></path>
			</g>
			<g>
				<path class="st3" d="M77.8,126.3c0.9,0.8,1.8,1.5,2.7,2.2c0.1,0.2,0.3,0.2,0.6,0.1c0.3-0.1,0.6-0.2,0.9-0.4
					c0.3-0.2,0.6-0.4,0.9-0.6c0.3-0.2,0.5-0.4,0.6-0.6c0.4-0.4,0.8-0.9,1.2-1.3c0.4-0.5,0.8-1,1.1-1.6c0.6-0.9,1-1.7,1.2-2.5
					s0.2-1.5,0-2.3c-0.2-0.6-0.4-1.2-0.7-1.7s-0.7-1-1.2-1.4c-0.5-0.4-1-0.9-1.5-1.2c-0.5-0.4-1.1-0.7-1.6-1
					c-0.2-0.1-0.4-0.2-0.6-0.2c-0.2,0-0.4,0.1-0.5,0.4l-6.1,9.3c-0.1,0.2-0.2,0.4-0.2,0.5c0,0.1,0.1,0.2,0.2,0.4
					C75.9,124.8,76.9,125.5,77.8,126.3z"></path>
				<path class="st3" d="M112.6,151c0.4,0.1,0.9,0.2,1.3,0.3s0.9,0.2,1.4,0.2c0.9,0,1.6-0.2,2.1-0.4c0.5-0.3,1-0.6,1.5-0.9
					c0.4-0.4,0.8-0.8,1.2-1.3c0.4-0.5,0.6-0.8,0.8-1.1c0.3-0.5,0.5-1.1,0.7-1.8c0.2-0.7,0.1-1.6-0.3-2.6c-0.5-1.1-1.1-2.2-1.8-3.3
					c-0.7-1-1.3-1.8-1.8-2.4c-0.2-0.2-0.4-0.3-0.6-0.3c-0.2,0-0.4,0.2-0.6,0.5c-0.7,0.9-1.3,1.8-1.8,2.6c-0.5,0.8-1,1.7-1.6,2.6
					c-1.1,0.6-2.1,1.3-3,2.1c-0.8,0.8-1.6,1.6-2.3,2.4c-0.7,0.8-1.4,1.7-2.1,2.6c-0.7,0.9-1.4,1.8-2.3,2.7c-0.8,0.9-1.8,1.8-2.8,2.6
					c-0.8,0.6-1.8,1.2-2.8,1.8c1.5-1.5,3-3.5,4.5-5.8c1.7-2.6,2.6-4.7,2.8-6.5c0.1-1.2-0.2-2.3-0.9-3.2c-0.7-0.9-1.7-1.5-2.9-1.6
					c-0.8-0.1-1.8,0.1-3,0.7c-1.2,0.5-2.5,1.5-4,3c-1.5,1.5-3,3.1-4.5,4.8c-1.4,1.6-2.5,2.9-3.3,3.8c-0.8,0.9-1.2,1.4-1.3,1.4
					c-0.7-0.1-1.3-0.3-1.9-0.6c-0.6-0.3-1.1-0.5-1.6-0.9c-0.5-0.2-1.1-0.2-1.7-0.1c-0.6,0.2-1.2,0.6-1.8,1.4c-0.9,1.1-1.7,2-2.3,2.8
					c-0.6,0.7-1.2,1.3-1.8,1.8s-1.1,0.8-1.5,1c-0.5,0.2-1,0.4-1.5,0.5c-1.3,0.2-2.5,0.1-3.7-0.3s-2.2-0.9-3.1-1.7
					c-0.9-0.8-1.6-1.8-2.1-3c-0.5-1.2-0.8-2.6-0.8-4.1c0-0.1,0-0.1,0-0.2c-0.1-1.5-0.2-2.6-0.2-3.3c0-2.5,0.7-6.1,2.1-10.8
					c0.5-1.8,0.5-2.7-0.1-2.8c-1-0.1-2.3,2.3-3.9,7c-1.5,4.4-2.4,9-2.8,13.9c0,2.7,0,4.3,0,5.1c0,0,0,0.1,0,0.1
					c-0.1,1.6,0.1,3.2,0.4,4.8c0.3,1.5,0.9,2.9,1.7,4.1c0.8,1.2,1.8,2.1,3.1,2.7c1.3,0.7,2.9,0.9,4.7,0.8c1-0.2,2-0.6,2.8-1.3
					c0.8-0.7,1.6-1.5,2.2-2.4c0.7-0.9,1.3-1.9,1.8-2.9c0.5-1,1-2,1.5-2.8c0.5-0.8,0.9-1.5,1.3-2c0.4-0.5,0.8-0.7,1.3-0.6
					c0.8,0.6,1.7,1.1,2.6,1.5c0.9,0.4,1.9,0.6,2.8,0.8c1,0.2,1.9,0.3,2.9,0.3s1.9,0,2.8-0.1c0.1,0,0.2-0.1,0.4-0.1
					c0.5,0,1.2,0,2.3-0.2c1.5-0.1,3.2-0.4,4.8-0.9c1.4-0.5,2.6-1,3.6-1.6c1.1-0.6,2-1.2,2.8-1.9c0.8-0.7,1.5-1.3,2.1-2
					c0.6-0.6,1.1-1.2,1.7-1.8c0.6-0.6,1.1-1.2,1.8-1.8c0.6-0.6,1.2-1,1.9-1.3c0.5-0.2,0.9-0.2,1.4-0.2
					C111.7,150.8,112.1,150.9,112.6,151z M92.9,148.1c1.5-1.4,3-2,4.5-1.8c0.7,0.1,1.3,0.2,1.8,0.4c0.5,0.2,0.9,0.5,1.3,0.7
					s0.7,0.5,0.9,0.8c0.2,0.3,0.4,0.5,0.5,0.6c-2.1,2.1-4.3,3.6-6.7,4.4c-2.4,0.9-5,1.1-7.8,0.8C89.5,151.4,91.3,149.4,92.9,148.1z"></path>
				<path class="st3" d="M130.5,144.1c-0.4,0-1.1,1.3-2.2,4c-1.1,2.7-2.2,5-3.3,7c-1.1,2-2.6,3.7-4.4,5.2c-1.8,1.5-3.5,2.6-5.1,3.5
					c-1.6,0.9-2.9,1.7-3.8,2.5c-0.9,0.8-1.4,1.7-1.4,2.9c0,1.2,1,1.7,3,1.7c2.8-0.3,5.7-2.3,8.8-6.2c3.1-3.9,5.9-10,8.3-18.3
					c0.3-0.8,0.4-1.4,0.4-1.8C130.7,144.2,130.6,144.1,130.5,144.1z"></path>
				<path class="st3" d="M54.5,123c-0.4,0-0.8,0.5-1.3,1.6c-0.5,1.1-1.2,2.8-2,5.2c-0.8,2.4-1.3,4.6-1.4,6.6c0,0.7,0,1.8,0,3.5
					c0,1.6,0,2.9,0,4c0,2.8-0.3,5-1,6.6c-1.7,4.8-4.7,8.6-9,11.5c-4.3,2.5-8.9,3.7-13.6,3.7c-3.8-0.1-6.9-1.1-9.3-2.9
					c-2.3-1.8-3.6-4.5-3.7-7.9c0.1-4.6,1.7-10.1,4.9-16.5c0.2-0.7,0.2-1.3,0.1-1.9c-0.2-0.6-0.7-0.1-1.7,1.7
					c-4.9,8.7-7.3,16.7-7.3,24.1c0.1,4.7,1.5,8.3,4,11c2.5,2.6,5.9,4,10.2,4.2c8.2-0.1,15.3-4.1,21.1-12c5.9-8.2,9.2-18,9.9-29.3
					c0.1-4.3,0.1-7.3,0.2-8.9c0.1-1.6,0.1-2.7,0.2-3.2C54.9,123.3,54.8,123,54.5,123z"></path>
				<path class="st3" d="M29.3,147.8c0.6,0.5,1.3,1.1,2.1,1.7c0.8,0.6,1.3,1,1.5,1c0.4,0,0.8-0.3,1.5-0.9c0.9-0.9,1.7-1.9,2.3-3
					c0.6-1.1,1-2,1.2-2.9c0.3-0.9,0.3-1.7,0.2-2.4c-0.1-0.9-0.5-1.7-1-2.3c-0.5-0.7-1.3-1.3-2.2-2.1c-1-0.7-1.8-1.4-2.4-1.9
					c-1.1,1.8-1.9,3.2-2.5,4.2c-0.5,0.9-1.1,2.2-1.9,3.9c-0.2,0.5-0.6,1.2-1,2.2c0,0.3,0.2,0.7,0.7,1.1
					C28.2,146.7,28.7,147.2,29.3,147.8z"></path>
			</g>
		</g>
	</g>
	
		<rect x="3.2" y="110.1" transform="matrix(0.7071 -0.7071 0.7071 0.7071 -80.0912 42.141)" class="st2" width="15.3" height="15.3"></rect>
</g>
</svg><style>@media (prefers-color-scheme: light) { :root { filter: none; } }
@media (prefers-color-scheme: dark) { :root { filter: none; } }
</style></svg>