<?xml version="1.0" encoding="utf-8"?>
<!-- Generator: Adobe Illustrator 24.3.0, SVG Export Plug-In . SVG Version: 6.00 Build 0)  -->
<svg version="1.1" id="Layer_1" xmlns="http://www.w3.org/2000/svg" xmlns:xlink="http://www.w3.org/1999/xlink" x="0px" y="0px"
	 viewBox="0 0 225 150.2" style="enable-background:new 0 0 225 150.2;" xml:space="preserve">
<style type="text/css">
	.Drop_x0020_Shadow{fill:none;}
	.Round_x0020_Corners_x0020_2_x0020_pt{fill:#FFFFFF;stroke:#000000;stroke-miterlimit:10;}
	.Live_x0020_Reflect_x0020_X{fill:none;}
	.Bevel_x0020_Soft{fill:url(#SVGID_1_);}
	.Dusk{fill:#FFFFFF;}
	.Foliage_GS{fill:#FFDD00;}
	.Pompadour_GS{fill-rule:evenodd;clip-rule:evenodd;fill:#44ADE2;}
	.st0{fill:#D0A151;}
	.st1{fill:#FFFFFF;}
	.st2{fill:#CAA45D;}
</style>
<linearGradient id="SVGID_1_" gradientUnits="userSpaceOnUse" x1="99.9232" y1="138.1538" x2="100.6304" y2="138.8609">
	<stop  offset="0" style="stop-color:#DEDFE3"/>
	<stop  offset="0.1738" style="stop-color:#D8D9DD"/>
	<stop  offset="0.352" style="stop-color:#C9CACD"/>
	<stop  offset="0.5323" style="stop-color:#B4B5B8"/>
	<stop  offset="0.7139" style="stop-color:#989A9C"/>
	<stop  offset="0.8949" style="stop-color:#797C7E"/>
	<stop  offset="1" style="stop-color:#656B6C"/>
</linearGradient>
<g>
	<path class="st0" d="M213.2,36.9l-0.4-0.3L159.2,0l0,0l0,0L99.7,43c-5.7,4.8-8.9,11.9-8.9,19.3l1.6,24.7l0,0l1.2-24.7
		c0-6.6,2.9-12.9,7.8-17.1l43.8-31.7l55.8,38.1c3,2.7,4.7,6.6,4.7,10.7V139H225V62.4C225,52.5,220.7,43.3,213.2,36.9z"/>
	<g>
		<g>
			<path class="st1" d="M36.7,131.3c-0.1,1.8-0.5,3.3-1.2,4.6c-0.7,1.3-1.4,1.9-2.2,1.9c0-0.5,0-1.8,0-3.7c0.3-3.4,0.9-6.7,2-9.8
				c1.1-3.3,2-5,2.8-4.9c0.4,0.1,0.4,0.7,0.1,2c-1,3.4-1.4,5.9-1.4,7.6C36.6,129.5,36.7,130.3,36.7,131.3z"/>
			<path class="st1" d="M55.8,139.7c-0.6,0.1-1.3,0.1-2,0.1c-0.7,0-1.4-0.1-2-0.2c-0.7-0.1-1.3-0.3-2-0.6c-0.7-0.3-1.3-0.6-1.9-1.1
				c-0.3-0.1-0.6,0-0.9,0.4c-0.3,0.4-0.6,0.8-0.9,1.4c-0.3,0.6-0.7,1.3-1,2c-0.4,0.7-0.8,1.4-1.3,2.1c-0.5,0.7-1,1.2-1.6,1.7
				c-0.6,0.5-1.2,0.8-2,0.9c-1.3,0.1-2.4-0.1-3.3-0.6c-0.9-0.5-1.6-1.1-2.2-1.9c-0.6-0.8-1-1.8-1.2-2.9c-0.2-1.1-0.3-2.2-0.3-3.4
				c0.1-0.8,0.3-1.5,0.6-2.3c0.3-0.7,0.6-1.4,0.9-2c0.3-0.6,0.7-1.1,1-1.5c0.3-0.4,0.7-0.6,1-0.7c0,1.1,0.2,2.1,0.5,3
				c0.4,0.9,0.9,1.6,1.5,2.1c0.6,0.6,1.3,0.9,2.2,1.2c0.8,0.2,1.7,0.3,2.6,0.2c0.4-0.1,0.7-0.2,1.1-0.4c0.3-0.2,0.7-0.4,1.1-0.7
				c0.4-0.3,0.8-0.7,1.3-1.2c0.5-0.5,1-1.2,1.6-1.9c0.4-0.6,0.9-0.9,1.3-1c0.4-0.1,0.8-0.1,1.2,0.1c0.4,0.2,0.7,0.4,1.1,0.6
				c0.4,0.2,0.8,0.3,1.3,0.4c0,0,0.3-0.4,0.9-1c0.6-0.6,1.4-1.5,2.4-2.7c1.1-1.2,2.1-2.3,3.2-3.4c1-1.1,2-1.8,2.8-2.1
				c0.8-0.4,1.5-0.5,2.1-0.5c0.9,0.1,1.6,0.5,2.1,1.2c0.5,0.7,0.7,1.4,0.6,2.3c-0.1,1.3-0.8,2.8-1.9,4.6c-1.2,1.8-2.4,3.3-3.5,4.4
				C60.1,138.2,58,139.3,55.8,139.7z M54.7,109.3c0.1,0.5,0.1,1.1,0,1.6c-0.2,0.6-0.4,1.1-0.8,1.7c-0.2,0.4-0.5,0.8-0.8,1.1
				c-0.3,0.3-0.6,0.6-0.9,0.9c-0.1,0.1-0.2,0.2-0.4,0.4c-0.2,0.2-0.4,0.3-0.6,0.5c-0.2,0.1-0.4,0.2-0.6,0.3c-0.2,0.1-0.3,0-0.4-0.1
				c-0.6-0.5-1.3-1-1.9-1.6c-0.6-0.5-1.3-1-2.1-1.5c-0.1-0.1-0.2-0.2-0.2-0.3c0-0.1,0.1-0.2,0.1-0.4l4.3-6.5
				c0.1-0.2,0.2-0.3,0.4-0.3c0.1,0,0.3,0.1,0.4,0.1c0.4,0.2,0.7,0.5,1.1,0.7c0.4,0.3,0.7,0.6,1,0.9c0.3,0.3,0.6,0.7,0.8,1
				C54.5,108.4,54.6,108.8,54.7,109.3z M60.4,133.2c1.7-0.6,3.3-1.6,4.7-3.1c-0.1-0.1-0.2-0.2-0.3-0.4c-0.2-0.2-0.4-0.4-0.6-0.5
				c-0.3-0.2-0.6-0.4-0.9-0.5c-0.4-0.2-0.8-0.3-1.3-0.3c-1-0.1-2.1,0.3-3.2,1.3c-1.1,1-2.4,2.4-3.9,4.2
				C56.9,133.9,58.7,133.8,60.4,133.2z"/>
			<path class="st1" d="M61.7,136.4c1-0.5,1.9-1,2.6-1.6c0.7-0.6,1.4-1.2,2-1.8c0.6-0.6,1.1-1.3,1.6-1.9c0.5-0.6,1-1.3,1.5-1.9
				c0.5-0.6,1.1-1.2,1.6-1.7c0.6-0.5,1.3-1,2.1-1.4c0.4-0.7,0.8-1.3,1.1-1.8c0.3-0.6,0.8-1.2,1.2-1.8c0.2-0.2,0.3-0.4,0.4-0.4
				c0.1,0,0.3,0.1,0.4,0.2c0.4,0.4,0.8,1,1.2,1.7c0.5,0.7,0.9,1.5,1.3,2.3c0.2,0.7,0.3,1.4,0.2,1.8c-0.1,0.5-0.3,0.9-0.5,1.3
				c-0.1,0.2-0.3,0.5-0.5,0.8s-0.5,0.6-0.8,0.9c-0.3,0.3-0.7,0.5-1,0.7c-0.4,0.2-0.9,0.3-1.5,0.3c-0.4,0-0.7,0-1-0.1
				c-0.3-0.1-0.6-0.2-0.9-0.2c-0.3-0.1-0.6-0.1-0.9-0.1c-0.3,0-0.6,0-1,0.1c-0.5,0.2-0.9,0.5-1.3,0.9c-0.4,0.4-0.8,0.8-1.2,1.3
				c-0.4,0.4-0.7,0.8-1.2,1.2c-0.4,0.5-0.9,0.9-1.5,1.4c-0.6,0.5-1.2,0.9-2,1.3c-0.7,0.4-1.6,0.8-2.6,1.2c-1.2,0.3-2.3,0.5-3.4,0.6
				c-0.9,0.2-1.5,0.2-1.8,0.2c-0.3-0.1-0.5-0.1-0.5-0.2c-0.1-0.1,0.4-0.4,1.4-0.9C57.7,138.2,59.4,137.4,61.7,136.4z"/>
			<path class="st1" d="M85.2,128.4c-1.7,5.9-3.7,10.2-5.8,12.9c-2.2,2.7-4.3,4.2-6.2,4.3c-1.4,0-2.1-0.4-2.1-1.2c0-0.8,0.3-1.5,1-2
				c0.6-0.5,1.5-1.1,2.7-1.8c1.1-0.6,2.3-1.5,3.6-2.5c1.3-1,2.3-2.2,3.1-3.7c0.8-1.4,1.6-3.1,2.3-4.9c0.8-1.9,1.3-2.8,1.6-2.8
				c0.1,0,0.2,0.1,0.2,0.4C85.5,127.4,85.4,127.8,85.2,128.4z"/>
			<path class="st1" d="M92.1,124.1h0.2c2.3,1.3,3.4,3.2,3.4,5.7v0.1c0,3.1-1.4,6.5-4.3,10.3c-1.7,1.9-3.3,2.9-4.9,2.9
				c-1.1,0-1.7-0.6-1.8-1.9v-0.8c0.1-1.8,1.3-4.5,3.6-8c0.1-0.2,0.3-0.9,0.5-2.1C90.5,126.3,91.6,124.3,92.1,124.1z M87,137
				c0.1,0.9,0.6,1.3,1.3,1.3c2.4-0.4,3.6-1.3,3.6-2.8c0-0.8-0.9-1.9-2.8-3.1H89C87.6,134.4,87,135.9,87,137z"/>
			<path class="st1" d="M191.2,113.1c-0.1,0.8-0.4,3.4-0.7,8c-0.4,4.6-0.8,7.7-1.2,9.4c-1.4,5.2-3.2,8.9-5.3,11.1
				c-0.9,0.7-2,1.1-3.2,1.3c-1.2,0.1-2,0.1-2.4,0c0-0.1,0.9-1,2.8-2.5c3.4-2.7,5.5-5.7,6.1-8.8c0.2-1.3,0.3-3.2,0.5-5.7
				c0.1-2.5,0.3-4.3,0.3-5.3c0.2-1.1,0.6-2.8,1.4-5c0.8-2.2,1.4-3.5,1.7-3.9c0.1-0.1,0.2-0.1,0.2,0.1
				C191.4,111.9,191.3,112.4,191.2,113.1z"/>
			<path class="st1" d="M197.7,120.9c2.3,1.4,3.5,3.4,3.5,6.1v1.2c0,2.7-1.3,6.1-3.8,10.3c-1.8,2.6-4.1,4.3-7.1,5.2
				c-0.2,0.1-0.5,0.1-0.8,0.1h-0.1c-0.4,0-0.6-0.2-0.8-0.5c0-0.8,1.7-2.5,5-5c2.4-2,3.7-3.3,3.8-4v-0.7c0-1.8-1.2-3.5-3.7-5.3
				C195.8,123.7,197.1,121.2,197.7,120.9z"/>
			<g>
				<path class="st1" d="M183.2,112.9c0.4-0.2,0.8-0.2,1.2-0.2c0.4,0.1,0.6,0.1,0.7,0.2c0.5,0.8,0.7,1.6,0.6,2.3
					c-0.1,0.7-0.3,1.5-0.6,2.3c-0.2-0.1-0.4-0.1-0.7-0.2c-0.3-0.1-0.6-0.1-0.9-0.1c-0.3,0-0.7,0.1-1.1,0.3c-0.4,0.2-0.9,0.5-1.3,0.9
					c-0.9,0.7-1.8,1.3-2.8,2c-1,0.7-2,1.4-3,2.1c-1,0.7-2,1.4-3,2c-1,0.7-1.9,1.3-2.8,1.9c-3.3,2.3-6.7,4.3-10.2,6.1
					c-3.5,1.8-7.2,3.3-10.9,4.5c-3.7,1.2-7.6,2.2-11.5,2.8c-3.9,0.7-7.9,1-11.9,1c0.3-1.5,0.7-2.9,1.3-4.3c0.5-1.4,1.3-2.8,2.3-4.3
					c3.2-0.1,6.2-0.2,9.1-0.6c2.9-0.3,5.6-0.8,8.3-1.3c2.7-0.6,5.2-1.2,7.7-2.1c2.5-0.8,4.9-1.7,7.3-2.8c2.1-0.9,4.2-2,6.3-3
					c2.1-1.1,4.2-2.2,6.2-3.5c0.5-0.3,1.1-0.7,1.7-1c0.6-0.4,1.3-0.8,2-1.2c0.7-0.4,1.3-0.9,2-1.3c0.7-0.4,1.3-0.8,1.8-1.2
					c0.6-0.3,1-0.6,1.5-0.9C182.7,113.2,183,113,183.2,112.9z"/>
				<path class="st1" d="M145.3,116.2c0,0.1,0.1,0.2,0.1,0.3l0.1,0.3c0,0.1,0,0.1,0,0.2c0,0,0,0.1,0,0.1c0,0,0,0.1,0,0.1
					c0,0,0,0.1,0,0.1c0,0,0,0,0,0.1c0,0.4,0,0.7-0.1,1c0,0,0,0.1,0,0.1c0,0,0,0.1,0,0.1l-0.1,0.3l-0.1,0.2c0,0,0,0.1,0,0.1
					c0,0.1,0,0.1-0.1,0.2l-0.2,0.3l-0.3,0.6l-0.5,0.7c-0.1,0.2-0.2,0.3-0.3,0.5c-0.1,0.1-0.2,0.3-0.3,0.4c-0.1,0.2-0.3,0.4-0.5,0.5
					s-0.3,0.3-0.5,0.5l-0.3,0.3l-0.2,0.1c-0.4,0.3-0.8,0.5-1,0.4c-0.1,0-0.1-0.1-0.2-0.1c0,0-0.1-0.1-0.1-0.1l-0.7-0.5l-0.3-0.3
					l-1.7-1.4l-0.2-0.1c-0.2-0.1-0.4-0.3-0.6-0.4c-0.2-0.1-0.4-0.3-0.6-0.4c-0.1-0.1-0.2-0.2-0.2-0.3c0-0.1,0.1-0.2,0.2-0.4l4.4-6.6
					c0.1-0.2,0.3-0.3,0.5-0.3l0.1,0c0,0,0.1,0,0.2,0.1c0,0.1,0.1,0.1,0.1,0.1c0.2,0.1,0.5,0.3,0.7,0.5c0.2,0.2,0.5,0.3,0.7,0.5
					l0.3,0.2c0.2,0.2,0.4,0.4,0.6,0.5c0.2,0.2,0.4,0.4,0.5,0.6l0.2,0.2l0.3,0.5l0.1,0.1C145.2,116.1,145.2,116.2,145.3,116.2z"/>
				<path class="st1" d="M150.3,105.9c0.1,0.5,0.1,1.1,0,1.6c-0.2,0.6-0.4,1.2-0.8,1.8c-0.3,0.5-0.6,1-1,1.4
					c-0.3,0.4-0.7,0.8-1.1,1.2c-0.3,0.3-0.5,0.5-0.7,0.6c-0.2,0.1-0.3,0.2-0.5,0.2c-0.1,0-0.3,0-0.3,0c-0.1,0-0.2-0.1-0.3-0.1
					c-0.7-0.5-1.3-1.1-2-1.6c-0.6-0.5-1.3-1.1-2.1-1.5c-0.1-0.1-0.1-0.2-0.1-0.3c0-0.1,0-0.2,0.1-0.3l4.4-6.7
					c0.1-0.2,0.2-0.2,0.4-0.2c0.1,0,0.3,0.1,0.4,0.1c0.4,0.2,0.8,0.5,1.2,0.7c0.4,0.3,0.7,0.6,1.1,0.9c0.3,0.3,0.6,0.7,0.9,1
					C150,105,150.1,105.4,150.3,105.9z"/>
				<path class="st1" d="M154.2,116.2c0.1,0.5,0.1,1.1,0,1.6c-0.2,0.6-0.4,1.2-0.8,1.8c-0.3,0.5-0.6,1-1,1.4
					c-0.3,0.4-0.7,0.8-1.1,1.2c-0.3,0.3-0.5,0.5-0.7,0.6c-0.2,0.1-0.3,0.2-0.5,0.2c-0.1,0-0.2,0-0.3,0s-0.2-0.1-0.3-0.1
					c-0.7-0.5-1.3-1.1-2-1.6c-0.6-0.5-1.3-1.1-2.1-1.5c-0.1-0.1-0.1-0.2-0.1-0.3c0-0.1,0-0.2,0.1-0.3l4.3-6.7
					c0.1-0.2,0.3-0.3,0.4-0.3c0.1,0,0.3,0.1,0.4,0.1c0.4,0.2,0.8,0.5,1.2,0.7c0.4,0.3,0.7,0.6,1.1,0.9c0.3,0.3,0.6,0.7,0.8,1
					C153.9,115.3,154.1,115.8,154.2,116.2z"/>
				<path class="st1" d="M184.7,100.5c0.1,0.5,0.1,1.1,0,1.6c-0.2,0.6-0.4,1.1-0.8,1.7c-0.3,0.4-0.5,0.8-0.8,1.1
					c-0.3,0.3-0.6,0.6-0.9,1c-0.1,0.1-0.2,0.2-0.4,0.4c-0.2,0.2-0.4,0.3-0.6,0.5c-0.2,0.1-0.4,0.2-0.6,0.3c-0.2,0.1-0.3,0-0.4-0.1
					c-0.6-0.5-1.3-1-1.9-1.6c-0.6-0.5-1.3-1-2.1-1.5c-0.1-0.1-0.2-0.2-0.2-0.3c0-0.1,0.1-0.2,0.1-0.4l4.3-6.5
					c0.1-0.2,0.2-0.3,0.4-0.3c0.1,0,0.3,0.1,0.4,0.1c0.4,0.2,0.8,0.5,1.1,0.7c0.4,0.3,0.7,0.6,1,0.9c0.3,0.3,0.6,0.7,0.8,1
					C184.4,99.7,184.6,100.1,184.7,100.5z"/>
				<g>
					<path class="st1" d="M101.3,131.9c-0.1,1.3-0.4,2.4-0.9,3.3c-0.5,0.9-1,1.4-1.6,1.4c0-0.4,0-1.3,0-2.7c0.2-2.5,0.7-4.9,1.4-7.1
						c0.8-2.4,1.5-3.6,2-3.6c0.3,0.1,0.3,0.5,0,1.4c-0.7,2.5-1.1,4.3-1.1,5.6C101.2,130.6,101.2,131.2,101.3,131.9z"/>
					<path class="st1" d="M159.2,84.7c-0.1,0-1,0.8-2.7,2.5c-1.7,1.7-8.8,6.2-21.3,13.6c-12.5,7.4-20.3,12.3-23.5,14.7
						c-3.2,2.4-5.4,4.6-6.6,6.4c-1.3,1.9-1.9,3-2,3.4c-0.1,0.4,0,0.6,0.2,0.6c0.2,0,1-0.7,2.3-2.2c1.4-1.5,3.2-3,5.4-4.7
						c2.2-1.6,9.5-6.2,21.9-13.8c12.4-7.6,20.4-12.9,23.9-16.1c1.2-1.1,2-2.5,2.4-4.1C159.3,84.8,159.2,84.7,159.2,84.7z
						 M149.4,87.2c-8,5.5-13.7,9.2-17,11.3c-3.3,2.1-4.9,3.2-4.9,3.4c0,0.2,0.3,0.2,0.9,0c0.6-0.2,2.8-1.4,6.6-3.5
						c3.9-2.1,7.6-4.5,11.2-7c3.6-2.6,5.4-4.3,5.5-5.2C151.3,85.9,150.6,86.3,149.4,87.2z"/>
					<path class="st1" d="M120,131.5c-2.6-0.5-4.7-0.9-6.2-1.3c-1.5-0.3-3-0.7-4.6-1.2l-2.7-0.7c-0.3-0.2-0.7-0.3-1-0.4
						c-0.3-0.1-0.5-0.2-0.8-0.2c-1.8-0.4-3-0.4-3.4-0.1c-0.1,0.1-0.4,0.5-0.9,1.3c-0.4,0.6-0.7,1.4-0.9,2.3
						c-0.2,0.5-0.3,1.4-0.5,2.9c-0.2,1.6-0.2,2.4-0.2,2.5c0,2,0.4,3.6,1.1,4.7c0.7,1.1,1.6,1.6,2.8,1.6c1.9,0,3.5-0.9,4.8-2.8
						c0.5-0.8,1.2-2.4,2.2-4.8c0-0.1,0-0.1,0.1-0.2l0.1,0.2c2.7,2.1,5.5,3.6,8.3,4.4c2.8,0.8,5.3,1.1,7.5,1.1
						c2.1-1.4,3.3-4.3,3.6-8.6C125.6,132.2,122.6,132,120,131.5z M108.6,133.2c-0.1,0.6-0.5,1.3-1.2,2c-0.8,0.9-1.9,1.4-3.1,1.4
						c-1.1,0-1.9-0.4-2.4-1.3c-0.4-0.6-0.5-1.4-0.5-2.2c0-1.2,0.4-2,1.2-2.3c0.3-0.1,0.8-0.2,1.5-0.2c1,0,1.8,0.1,2.6,0.3
						c0.4,0.1,0.7,0.2,1,0.3c0.8,0.3,1.2,0.9,1.2,1.5C108.6,132.8,108.6,133,108.6,133.2z"/>
				</g>
			</g>
			<path class="st1" d="M31.8,121c-0.5,8-2.8,14.9-7,20.7c-4.1,5.6-9.1,8.4-14.9,8.5c-3-0.1-5.4-1.1-7.2-3c-1.8-1.9-2.7-4.4-2.8-7.7
				c0-5.2,1.7-10.9,5.1-17c0.7-1.2,1.1-1.6,1.2-1.2c0.1,0.4,0.1,0.9,0,1.4c-2.3,4.5-3.4,8.4-3.5,11.6c0.1,2.4,1,4.3,2.6,5.6
				c1.6,1.3,3.8,2,6.5,2.1c3.3,0,6.5-0.9,9.6-2.6c3-2,5.2-4.7,6.4-8.1c0.5-1.2,0.7-2.7,0.7-4.7c0-0.7,0-1.7,0-2.8c0-1.1,0-1.9,0-2.4
				c0.1-1.4,0.4-3,1-4.6c0.6-1.7,1-2.9,1.4-3.7c0.4-0.8,0.7-1.1,0.9-1.1c0.2,0,0.3,0.2,0.2,0.6c0,0.4-0.1,1.2-0.1,2.3
				C31.9,115.9,31.9,118,31.8,121z M20.2,124.8c0.1,0.5,0.1,1.1-0.1,1.7c-0.2,0.6-0.5,1.3-0.9,2c-0.4,0.8-0.9,1.4-1.6,2.1
				c-0.4,0.4-0.8,0.6-1,0.6c-0.2,0-0.5-0.2-1.1-0.7c-0.6-0.4-1-0.9-1.5-1.2c-0.4-0.4-0.8-0.7-1.1-1c-0.3-0.3-0.5-0.6-0.5-0.8
				c0.3-0.7,0.6-1.2,0.7-1.6c0.5-1.1,1-2.1,1.3-2.7c0.4-0.7,1-1.6,1.7-2.9c0.5,0.4,1,0.8,1.7,1.4c0.7,0.5,1.2,1,1.6,1.5
				C19.9,123.6,20.1,124.1,20.2,124.8z"/>
		</g>
	</g>
	
		<rect x="87.1" y="91.2" transform="matrix(0.7071 -0.7071 0.7071 0.7071 -41.233 93.7025)" class="st2" width="10.8" height="10.8"/>
	<g>
		<g>
			<path class="st2" d="M171.3,75.1c-3.6-2.1-7.1-4.1-10.6-6.1c-7.3-4.2-14.5-8.4-21.7-12.6c-3.3-1.9-6.7-3.8-10-5.8
				c-0.8-0.5-1-0.9-0.8-1.7c0.1-0.5,0.4-1.1,0.7-1.5c0.7-1,1.4-1.1,2.4-0.5c13.3,7.7,26.7,15.4,40,23.1c1.5,0.9,1.8,2,0.9,3.5
				C171.9,74.1,171.6,74.6,171.3,75.1z M151.1,61c-0.4-0.3-0.6-0.6-0.8-0.5c-0.2,0-0.5,0.3-0.5,0.5c0,0.2,0.3,0.5,0.5,0.5
				C150.5,61.5,150.8,61.2,151.1,61z"/>
			<g>
				<path class="st2" d="M149.9,56.1c-6.6-3.8-13-7.5-19.5-11.3c0.9-1.5,1.7-3,2.6-4.5c1.1,1.3,2.6,2.1,4.1,2.7
					c1.4,0.5,2.8,0.9,4.2,1.4c1.9,0.7,3.8,1.4,5.5,2.7c1.5,1.2,2.5,2.7,3.1,4.5c0,0.1,0.1,0.2,0.1,0.3
					C149.9,53.3,149.9,54.7,149.9,56.1z"/>
			</g>
			<g>
				<path class="st2" d="M167.8,40.4c0.9,1.5,1.7,2.9,2.6,4.5c-6.5,3.8-13,7.5-19.4,11.2c-0.9-4.1,0.7-7.8,4.6-9.9
					c1.9-1,4.1-1.7,6.1-2.4c1.7-0.6,3.4-1.1,4.9-2.2C167,41.2,167.4,40.8,167.8,40.4z"/>
			</g>
			<path class="st2" d="M129.5,75.1c-0.4-0.7-0.9-1.4-1.2-2.1c-0.5-1.1-0.1-2.3,1-2.9c3.2-1.8,6.3-3.6,9.5-5.5
				c1.9-1.1,3.8-2.2,5.7-3.3c0.2-0.1,0.4-0.2,0.6-0.1c1.4,0.8,2.8,1.6,4.3,2.4C142.6,67.5,136.1,71.3,129.5,75.1z"/>
			<path class="st2" d="M151.5,57.3c2.6-1.5,5.2-3,7.8-4.5c3.4-2,6.9-4,10.3-5.9c1-0.6,1.6-0.5,2.3,0.4c0.3,0.4,0.5,0.8,0.7,1.2
				c0.4,1.1,0.2,1.7-0.8,2.2c-5,2.9-10,5.7-14.9,8.6c-0.6,0.3-1,0.4-1.6,0C154,58.7,152.8,58.1,151.5,57.3z"/>
		</g>
	</g>
</g>
</svg>
