<?xml version="1.0" encoding="utf-8"?>
<!-- Generator: Adobe Illustrator 24.3.0, SVG Export Plug-In . SVG Version: 6.00 Build 0)  -->
<svg version="1.1" id="Layer_1" xmlns="http://www.w3.org/2000/svg" xmlns:xlink="http://www.w3.org/1999/xlink" x="0px" y="0px"
	 viewBox="0 0 173.2 144.6" style="enable-background:new 0 0 173.2 144.6;" xml:space="preserve">
<style type="text/css">
	.Drop_x0020_Shadow{fill:none;}
	.Round_x0020_Corners_x0020_2_x0020_pt{fill:#FFFFFF;stroke:#000000;stroke-miterlimit:10;}
	.Live_x0020_Reflect_x0020_X{fill:none;}
	.Bevel_x0020_Soft{fill:url(#SVGID_1_);}
	.Dusk{fill:#FFFFFF;}
	.Foliage_GS{fill:#FFDD00;}
	.Pompadour_GS{fill-rule:evenodd;clip-rule:evenodd;fill:#44ADE2;}
	.st0{fill:#D0A151;}
	.st1{fill:#FFFFFF;}
	.st2{fill:#CAA45D;}
	.st3{fill:#07456B;}
	.st4{fill:#006838;}
</style>
<linearGradient id="SVGID_1_" gradientUnits="userSpaceOnUse" x1="105.8396" y1="-220.9694" x2="106.5467" y2="-220.2623">
	<stop  offset="0" style="stop-color:#DEDFE3"/>
	<stop  offset="0.1738" style="stop-color:#D8D9DD"/>
	<stop  offset="0.352" style="stop-color:#C9CACD"/>
	<stop  offset="0.5323" style="stop-color:#B4B5B8"/>
	<stop  offset="0.7139" style="stop-color:#989A9C"/>
	<stop  offset="0.8949" style="stop-color:#797C7E"/>
	<stop  offset="1" style="stop-color:#656B6C"/>
</linearGradient>
<g>
	<g>
		<path class="st0" d="M164.2,28.4l-0.3-0.3L122.6,0l0,0l0,0L76.8,33.1c-4.4,3.7-6.8,9.2-6.8,14.9l1.3,19.1l0,0L72.2,48
			c0-5.1,2.2-9.9,6-13.1l33.7-24.4l43,29.3c2.3,2.1,3.6,5.1,3.6,8.2v73.4h14.7V48C173.2,40.5,169.9,33.3,164.2,28.4z"/>
		<g>
			<g>
				<path class="st3" d="M28.3,101.1c-0.1,1.4-0.4,2.5-0.9,3.5c-0.5,1-1.1,1.4-1.7,1.4c0-0.4,0-1.4,0-2.9c0.2-2.6,0.7-5.1,1.5-7.5
					c0.9-2.6,1.6-3.8,2.1-3.8c0.3,0.1,0.3,0.6,0,1.5c-0.7,2.6-1.1,4.5-1.1,5.9C28.2,99.7,28.2,100.3,28.3,101.1z"/>
				<path class="st3" d="M43,107.6c-0.5,0-1,0.1-1.5,0.1c-0.5,0-1.1-0.1-1.6-0.1c-0.5-0.1-1-0.2-1.5-0.4c-0.5-0.2-1-0.5-1.4-0.8
					c-0.2-0.1-0.5,0-0.7,0.3c-0.2,0.3-0.5,0.6-0.7,1.1c-0.2,0.5-0.5,1-0.8,1.5c-0.3,0.6-0.6,1.1-1,1.6s-0.8,0.9-1.2,1.3
					s-1,0.6-1.5,0.7c-1,0.1-1.9-0.1-2.6-0.4c-0.7-0.4-1.3-0.9-1.7-1.5c-0.4-0.6-0.7-1.4-0.9-2.2c-0.2-0.8-0.3-1.7-0.2-2.6
					c0.1-0.6,0.3-1.2,0.5-1.7c0.2-0.6,0.4-1.1,0.7-1.5s0.5-0.8,0.8-1.1c0.3-0.3,0.5-0.5,0.7-0.5c0,0.9,0.1,1.6,0.4,2.3
					c0.3,0.7,0.7,1.2,1.1,1.6c0.5,0.4,1,0.7,1.7,0.9c0.6,0.2,1.3,0.2,2,0.1c0.3-0.1,0.6-0.1,0.8-0.3c0.3-0.1,0.5-0.3,0.8-0.6
					c0.3-0.2,0.6-0.6,1-1c0.4-0.4,0.8-0.9,1.2-1.5c0.3-0.4,0.7-0.7,1-0.8c0.3-0.1,0.6-0.1,0.9,0c0.3,0.2,0.6,0.3,0.9,0.5
					c0.3,0.1,0.6,0.2,1,0.3c0,0,0.3-0.3,0.7-0.8c0.4-0.5,1-1.2,1.8-2c0.8-0.9,1.6-1.8,2.4-2.6c0.8-0.8,1.5-1.4,2.1-1.6
					c0.6-0.3,1.2-0.4,1.6-0.4c0.7,0.1,1.2,0.4,1.6,0.9c0.4,0.5,0.6,1.1,0.5,1.7c-0.1,1-0.6,2.2-1.5,3.5c-0.9,1.4-1.8,2.5-2.7,3.4
					C46.3,106.4,44.7,107.3,43,107.6z M42.1,84.1c0.1,0.4,0.1,0.8,0,1.2c-0.1,0.4-0.3,0.9-0.6,1.3c-0.2,0.3-0.4,0.6-0.6,0.9
					c-0.2,0.3-0.4,0.5-0.7,0.7c-0.1,0.1-0.2,0.2-0.3,0.3c-0.2,0.1-0.3,0.2-0.5,0.4c-0.2,0.1-0.3,0.2-0.5,0.2c-0.2,0-0.3,0-0.3-0.1
					c-0.5-0.4-1-0.8-1.5-1.2c-0.5-0.4-1-0.8-1.6-1.2c-0.1-0.1-0.1-0.1-0.1-0.2c0-0.1,0-0.2,0.1-0.3l3.3-5c0.1-0.1,0.2-0.2,0.3-0.2
					c0.1,0,0.2,0,0.3,0.1c0.3,0.2,0.6,0.3,0.9,0.6c0.3,0.2,0.6,0.4,0.8,0.7c0.2,0.2,0.5,0.5,0.6,0.8C41.9,83.5,42.1,83.8,42.1,84.1z
					 M46.5,102.5c1.3-0.5,2.5-1.3,3.6-2.4c-0.1-0.1-0.1-0.2-0.3-0.3c-0.1-0.1-0.3-0.3-0.5-0.4S49,99.1,48.7,99
					c-0.3-0.1-0.6-0.2-1-0.2c-0.8-0.1-1.6,0.2-2.4,1c-0.8,0.7-1.8,1.8-3,3.2C43.8,103.1,45.2,103,46.5,102.5z"/>
				<path class="st3" d="M47.5,105c0.8-0.4,1.5-0.8,2-1.3c0.6-0.5,1.1-0.9,1.5-1.4c0.4-0.5,0.9-1,1.2-1.5c0.4-0.5,0.8-1,1.1-1.4
					c0.4-0.5,0.8-0.9,1.3-1.3c0.5-0.4,1-0.8,1.6-1.1c0.3-0.5,0.6-1,0.8-1.4c0.3-0.4,0.6-0.9,0.9-1.4c0.1-0.2,0.2-0.3,0.3-0.3
					c0.1,0,0.2,0.1,0.3,0.2c0.3,0.3,0.6,0.7,1,1.3c0.4,0.6,0.7,1.1,1,1.8c0.2,0.6,0.2,1.1,0.2,1.4c-0.1,0.4-0.2,0.7-0.4,1
					c-0.1,0.2-0.2,0.4-0.4,0.6c-0.2,0.2-0.4,0.5-0.6,0.7c-0.2,0.2-0.5,0.4-0.8,0.5c-0.3,0.1-0.7,0.2-1.1,0.2c-0.3,0-0.5,0-0.8-0.1
					s-0.5-0.1-0.7-0.2c-0.2,0-0.5-0.1-0.7-0.1c-0.2,0-0.5,0-0.7,0.1c-0.4,0.1-0.7,0.4-1,0.7c-0.3,0.3-0.6,0.6-0.9,1
					c-0.3,0.3-0.6,0.6-0.9,1c-0.3,0.3-0.7,0.7-1.1,1.1c-0.4,0.4-0.9,0.7-1.5,1c-0.6,0.3-1.2,0.6-2,0.9c-0.9,0.2-1.8,0.4-2.6,0.5
					c-0.7,0.1-1.1,0.2-1.4,0.1c-0.2,0-0.4-0.1-0.4-0.1c-0.1-0.1,0.3-0.3,1.1-0.7C44.5,106.4,45.7,105.8,47.5,105z"/>
				<path class="st3" d="M65.6,98.8c-1.3,4.5-2.8,7.8-4.5,9.9c-1.7,2.1-3.3,3.2-4.8,3.3c-1.1,0-1.6-0.3-1.6-0.9
					c0-0.6,0.2-1.2,0.7-1.6c0.5-0.4,1.2-0.9,2.1-1.4c0.9-0.5,1.8-1.1,2.8-1.9c1-0.8,1.8-1.7,2.4-2.8c0.6-1.1,1.2-2.4,1.8-3.8
					c0.6-1.5,1-2.2,1.2-2.2c0.1,0,0.1,0.1,0.1,0.3C65.8,98.1,65.7,98.4,65.6,98.8z"/>
				<path class="st3" d="M70.9,95.5h0.2c1.8,1,2.6,2.5,2.6,4.4v0.1c0,2.4-1.1,5-3.3,7.9c-1.3,1.5-2.6,2.2-3.8,2.2
					c-0.8,0-1.3-0.5-1.4-1.5v-0.6c0.1-1.4,1-3.4,2.8-6.2c0.1-0.1,0.2-0.7,0.4-1.6C69.7,97.3,70.5,95.7,70.9,95.5z M67,105.5
					c0.1,0.7,0.4,1,1,1c1.9-0.3,2.8-1,2.8-2.1c0-0.6-0.7-1.4-2.1-2.4h-0.1C67.5,103.5,67,104.7,67,105.5z"/>
				<path class="st3" d="M147.2,87.1c-0.1,0.6-0.3,2.6-0.6,6.2c-0.3,3.5-0.6,5.9-1,7.2c-1.1,4-2.4,6.8-4.1,8.5
					c-0.7,0.5-1.5,0.9-2.4,1c-0.9,0.1-1.6,0.1-1.9,0c0-0.1,0.7-0.7,2.2-1.9c2.7-2.1,4.2-4.4,4.7-6.8c0.1-1,0.3-2.5,0.4-4.4
					c0.1-1.9,0.2-3.3,0.2-4.1c0.1-0.9,0.5-2.2,1.1-3.9c0.6-1.7,1-2.7,1.3-3c0.1-0.1,0.2-0.1,0.2,0.1
					C147.3,86.2,147.3,86.5,147.2,87.1z"/>
				<path class="st3" d="M152.2,93.1c1.8,1.1,2.7,2.6,2.7,4.7v0.9c0,2.1-1,4.7-2.9,7.9c-1.3,2-3.2,3.3-5.5,4c-0.2,0-0.4,0.1-0.6,0.1
					h-0.1c-0.3,0-0.5-0.1-0.6-0.4c0-0.6,1.3-1.9,3.8-3.8c1.9-1.5,2.9-2.6,2.9-3.1v-0.5c0-1.4-0.9-2.7-2.8-4
					C150.7,95.2,151.8,93.3,152.2,93.1z"/>
				<g>
					<path class="st3" d="M141,86.9c0.3-0.1,0.6-0.2,0.9-0.1c0.3,0,0.5,0.1,0.6,0.1c0.4,0.6,0.5,1.2,0.5,1.8c0,0.6-0.2,1.2-0.5,1.7
						c-0.2-0.1-0.3-0.1-0.5-0.2s-0.4-0.1-0.7,0c-0.3,0-0.5,0.1-0.9,0.2c-0.3,0.1-0.7,0.4-1,0.7c-0.7,0.5-1.4,1-2.1,1.6
						c-0.8,0.5-1.5,1.1-2.3,1.6c-0.8,0.5-1.6,1-2.3,1.6c-0.8,0.5-1.5,1-2.1,1.4c-2.5,1.7-5.2,3.3-7.9,4.7c-2.7,1.4-5.5,2.5-8.4,3.5
						c-2.9,0.9-5.8,1.7-8.8,2.2c-3,0.5-6.1,0.8-9.2,0.8c0.2-1.1,0.6-2.2,1-3.3c0.4-1.1,1-2.2,1.8-3.3c2.4,0,4.8-0.2,7-0.4
						c2.2-0.2,4.3-0.6,6.4-1s4-1,5.9-1.6c1.9-0.6,3.8-1.3,5.6-2.1c1.6-0.7,3.3-1.5,4.8-2.3c1.6-0.8,3.2-1.7,4.8-2.7
						c0.4-0.2,0.8-0.5,1.3-0.8c0.5-0.3,1-0.6,1.5-0.9c0.5-0.3,1-0.7,1.5-1c0.5-0.3,1-0.6,1.4-0.9c0.4-0.3,0.8-0.5,1.1-0.7
						C140.7,87.1,140.9,87,141,86.9z"/>
					<path class="st3" d="M111.8,89.5c0,0.1,0,0.1,0.1,0.2l0.1,0.2c0,0.1,0,0.1,0,0.1c0,0,0,0.1,0,0.1c0,0,0,0.1,0,0.1
						c0,0,0,0,0,0.1c0,0,0,0,0,0.1c0,0.3,0,0.5-0.1,0.8c0,0,0,0.1,0,0.1c0,0,0,0,0,0.1l-0.1,0.2l-0.1,0.1c0,0,0,0.1,0,0.1
						c0,0,0,0.1-0.1,0.1l-0.1,0.2l-0.3,0.4l-0.4,0.5c-0.1,0.1-0.1,0.2-0.2,0.4c-0.1,0.1-0.2,0.2-0.3,0.3c-0.1,0.1-0.2,0.3-0.4,0.4
						s-0.3,0.3-0.4,0.4l-0.2,0.2l-0.1,0.1c-0.3,0.2-0.6,0.3-0.8,0.3c-0.1,0-0.1-0.1-0.1-0.1c0,0-0.1,0-0.1-0.1l-0.5-0.4l-0.2-0.2
						l-1.3-1.1l-0.1-0.1c-0.2-0.1-0.3-0.2-0.5-0.3c-0.2-0.1-0.3-0.2-0.5-0.3c-0.1-0.1-0.1-0.2-0.1-0.2s0-0.2,0.1-0.3l3.4-5.1
						c0.1-0.2,0.2-0.2,0.4-0.2l0,0c0,0,0.1,0,0.1,0c0,0,0,0.1,0.1,0.1c0.2,0.1,0.4,0.2,0.6,0.3c0.2,0.1,0.4,0.3,0.6,0.4l0.2,0.2
						c0.2,0.1,0.3,0.3,0.4,0.4c0.1,0.1,0.3,0.3,0.4,0.4l0.1,0.2l0.2,0.4l0,0.1C111.8,89.4,111.8,89.4,111.8,89.5z"/>
					<path class="st3" d="M115.7,81.5c0.1,0.4,0.1,0.8,0,1.3c-0.1,0.4-0.3,0.9-0.6,1.4c-0.2,0.4-0.5,0.7-0.8,1.1
						c-0.3,0.3-0.5,0.6-0.9,0.9c-0.2,0.2-0.4,0.4-0.5,0.5c-0.1,0.1-0.3,0.2-0.4,0.2c-0.1,0-0.2,0-0.3,0c-0.1,0-0.1-0.1-0.2-0.1
						c-0.5-0.4-1-0.8-1.5-1.2c-0.5-0.4-1-0.8-1.6-1.2c-0.1-0.1-0.1-0.2-0.1-0.2c0,0,0-0.1,0.1-0.3l3.4-5.2c0.1-0.1,0.2-0.2,0.3-0.2
						c0.1,0,0.2,0,0.3,0.1c0.3,0.2,0.6,0.3,0.9,0.6c0.3,0.2,0.6,0.4,0.8,0.7c0.3,0.2,0.5,0.5,0.7,0.8
						C115.5,80.9,115.6,81.2,115.7,81.5z"/>
					<path class="st3" d="M118.7,89.5c0.1,0.4,0.1,0.8,0,1.3c-0.1,0.4-0.3,0.9-0.6,1.4c-0.2,0.4-0.5,0.7-0.7,1.1
						c-0.3,0.3-0.6,0.6-0.9,0.9c-0.2,0.2-0.4,0.4-0.5,0.5c-0.1,0.1-0.3,0.2-0.4,0.2c-0.1,0-0.2,0-0.3,0c-0.1,0-0.1-0.1-0.2-0.1
						c-0.5-0.4-1-0.8-1.5-1.2c-0.5-0.4-1-0.8-1.6-1.2c-0.1-0.1-0.1-0.2-0.1-0.2c0,0,0-0.1,0.1-0.3l3.3-5.1c0.1-0.1,0.2-0.2,0.3-0.2
						c0.1,0,0.2,0,0.3,0.1c0.3,0.2,0.6,0.3,0.9,0.6c0.3,0.2,0.6,0.4,0.8,0.7c0.2,0.2,0.5,0.5,0.6,0.8
						C118.5,88.8,118.6,89.1,118.7,89.5z"/>
					<path class="st3" d="M142.2,77.4c0.1,0.4,0.1,0.8,0,1.2c-0.1,0.4-0.3,0.9-0.6,1.3c-0.2,0.3-0.4,0.6-0.6,0.9
						c-0.2,0.3-0.4,0.5-0.7,0.7c-0.1,0.1-0.2,0.2-0.3,0.3c-0.2,0.1-0.3,0.2-0.5,0.3c-0.2,0.1-0.3,0.2-0.5,0.2c-0.2,0-0.3,0-0.3-0.1
						c-0.5-0.4-1-0.8-1.5-1.2c-0.5-0.4-1-0.8-1.6-1.2c-0.1-0.1-0.1-0.1-0.1-0.2c0-0.1,0-0.2,0.1-0.3l3.3-5c0.1-0.1,0.2-0.2,0.3-0.2
						c0.1,0,0.2,0,0.3,0.1c0.3,0.2,0.6,0.4,0.9,0.6c0.3,0.2,0.6,0.4,0.8,0.7s0.5,0.5,0.6,0.8C142,76.7,142.1,77.1,142.2,77.4z"/>
					<g>
						<path class="st3" d="M78,101.6c-0.1,1-0.3,1.9-0.7,2.6c-0.4,0.7-0.8,1.1-1.3,1.1c0-0.3,0-1,0-2.1c0.2-1.9,0.5-3.7,1.1-5.5
							c0.6-1.9,1.1-2.8,1.6-2.8c0.2,0,0.2,0.4,0,1.1c-0.5,1.9-0.8,3.3-0.8,4.3C77.9,100.5,77.9,101,78,101.6z"/>
						<path class="st3" d="M122.6,65.2c-0.1,0-0.8,0.6-2.1,1.9c-1.3,1.3-6.8,4.8-16.4,10.4c-9.6,5.7-15.6,9.4-18.1,11.3
							c-2.4,1.9-4.1,3.5-5.1,4.9c-1,1.4-1.5,2.3-1.5,2.6c0,0.3,0,0.5,0.1,0.4c0.1,0,0.7-0.6,1.8-1.7c1.1-1.1,2.5-2.3,4.2-3.6
							c1.7-1.2,7.3-4.8,16.9-10.6c9.6-5.8,15.7-10,18.4-12.4c0.9-0.8,1.6-1.9,1.9-3.2C122.6,65.3,122.6,65.2,122.6,65.2z M115,67.1
							c-6.2,4.2-10.6,7.1-13.1,8.7c-2.5,1.6-3.8,2.5-3.8,2.6c0,0.2,0.2,0.1,0.7,0c0.4-0.2,2.1-1.1,5.1-2.7c3-1.6,5.8-3.4,8.6-5.4
							c2.8-2,4.2-3.3,4.2-4C116.5,66.2,115.9,66.4,115,67.1z"/>
						<path class="st3" d="M92.4,101.2c-2-0.4-3.6-0.7-4.8-1c-1.2-0.3-2.3-0.6-3.5-0.9L82,98.8c-0.2-0.1-0.5-0.2-0.8-0.3
							c-0.2-0.1-0.4-0.1-0.6-0.2C79.2,98,78.3,98,78,98.3c-0.1,0.1-0.3,0.4-0.7,1c-0.3,0.5-0.6,1.1-0.7,1.8
							c-0.1,0.4-0.2,1.1-0.4,2.2c-0.1,1.2-0.2,1.9-0.2,1.9c0,1.6,0.3,2.8,0.8,3.6c0.5,0.8,1.3,1.3,2.2,1.3c1.5,0,2.7-0.7,3.7-2.2
							c0.4-0.6,1-1.9,1.7-3.7c0-0.1,0-0.1,0.1-0.2l0.1,0.1c2.1,1.6,4.2,2.8,6.4,3.4c2.2,0.6,4.1,0.9,5.8,0.9
							c1.6-1.1,2.5-3.3,2.7-6.6C96.7,101.8,94.4,101.6,92.4,101.2z M83.6,102.6c-0.1,0.5-0.4,1-0.9,1.5c-0.6,0.7-1.5,1.1-2.4,1.1
							c-0.8,0-1.5-0.3-1.9-1c-0.3-0.5-0.4-1.1-0.4-1.7c0-0.9,0.3-1.5,0.9-1.8c0.2-0.1,0.6-0.1,1.1-0.1c0.8,0,1.4,0.1,2,0.2
							c0.3,0.1,0.5,0.2,0.7,0.3c0.6,0.3,0.9,0.7,0.9,1.2C83.7,102.3,83.6,102.4,83.6,102.6z"/>
					</g>
				</g>
				<path class="st3" d="M24.5,93.2c-0.4,6.2-2.1,11.5-5.4,15.9c-3.2,4.3-7,6.5-11.5,6.5c-2.3-0.1-4.2-0.9-5.5-2.3
					c-1.4-1.4-2.1-3.4-2.2-5.9c0-4,1.3-8.4,3.9-13.1c0.5-0.9,0.8-1.2,0.9-0.9c0.1,0.3,0.1,0.7,0,1c-1.7,3.5-2.6,6.4-2.7,9
					c0.1,1.9,0.8,3.3,2,4.3c1.3,1,2.9,1.5,5,1.6c2.6,0,5-0.7,7.4-2c2.3-1.6,4-3.6,4.9-6.2c0.4-0.9,0.5-2.1,0.5-3.6
					c0-0.6,0-1.3,0-2.2c0-0.9,0-1.5,0-1.9c0.1-1.1,0.3-2.3,0.8-3.6c0.4-1.3,0.8-2.3,1.1-2.8c0.3-0.6,0.5-0.9,0.7-0.9
					c0.1,0,0.2,0.2,0.2,0.5c0,0.3,0,0.9-0.1,1.8C24.6,89.2,24.5,90.8,24.5,93.2z M15.6,96.1c0.1,0.4,0,0.8-0.1,1.3
					c-0.1,0.5-0.4,1-0.7,1.6c-0.3,0.6-0.7,1.1-1.2,1.6c-0.3,0.3-0.6,0.5-0.8,0.5c-0.1,0-0.4-0.2-0.8-0.5c-0.4-0.3-0.8-0.7-1.1-0.9
					c-0.3-0.3-0.6-0.5-0.9-0.8c-0.2-0.2-0.4-0.4-0.4-0.6c0.3-0.5,0.4-0.9,0.6-1.2c0.4-0.9,0.7-1.6,1-2.1c0.3-0.5,0.7-1.3,1.3-2.3
					c0.4,0.3,0.8,0.6,1.3,1c0.5,0.4,0.9,0.8,1.2,1.1C15.3,95.2,15.5,95.6,15.6,96.1z"/>
			</g>
		</g>
		<g>
			<path class="st3" d="M131.9,57.9c-2.8-1.6-5.5-3.2-8.2-4.7c-5.6-3.2-11.2-6.4-16.7-9.7c-2.6-1.5-5.1-3-7.7-4.4
				c-0.6-0.4-0.8-0.7-0.6-1.3c0.1-0.4,0.3-0.8,0.5-1.2c0.6-0.8,1.1-0.8,1.9-0.4c10.3,5.9,20.5,11.8,30.8,17.8
				c1.2,0.7,1.4,1.5,0.7,2.7C132.3,57,132.1,57.4,131.9,57.9z M116.4,46.9c-0.3-0.2-0.4-0.4-0.6-0.4c-0.1,0-0.4,0.2-0.4,0.4
				c0,0.1,0.2,0.4,0.4,0.4C115.9,47.3,116.1,47.1,116.4,46.9z"/>
			<path class="st2" d="M115.4,43.2c-5.1-2.9-10-5.8-15-8.7c0.7-1.2,1.3-2.3,2-3.5c0.9,1,2,1.6,3.2,2.1c1.1,0.4,2.1,0.7,3.2,1.1
				c1.5,0.5,3,1.1,4.2,2.1c1.1,0.9,1.9,2.1,2.4,3.5c0,0.1,0.1,0.1,0.1,0.2C115.4,41.1,115.4,42.1,115.4,43.2z"/>
			<path class="st2" d="M129.2,31.1c0.7,1.1,1.3,2.3,2,3.4c-5,2.9-10,5.8-15,8.6c-0.7-3.2,0.6-6,3.5-7.6c1.5-0.8,3.1-1.3,4.7-1.9
				c1.3-0.5,2.6-0.9,3.8-1.7C128.6,31.7,128.9,31.4,129.2,31.1z"/>
			<path class="st3" d="M99.7,57.9c-0.3-0.6-0.7-1.1-0.9-1.6c-0.4-0.8-0.1-1.7,0.7-2.2c2.4-1.4,4.9-2.8,7.3-4.2
				c1.5-0.8,2.9-1.7,4.4-2.5c0.1-0.1,0.3-0.2,0.4-0.1c1.1,0.6,2.2,1.2,3.3,1.9C109.8,52,104.8,54.9,99.7,57.9z"/>
			<path class="st3" d="M116.6,44.1c2-1.2,4-2.3,6-3.4c2.6-1.5,5.3-3,7.9-4.6c0.7-0.4,1.2-0.4,1.8,0.3c0.2,0.3,0.4,0.6,0.5,1
				c0.3,0.8,0.1,1.3-0.6,1.7c-3.8,2.2-7.7,4.4-11.5,6.7c-0.5,0.3-0.8,0.3-1.3,0C118.5,45.2,117.6,44.7,116.6,44.1z"/>
		</g>
	</g>
	<rect x="71.2" y="121.4" class="st4" width="87.3" height="23.1"/>
	<g>
		<path class="st1" d="M78.3,128.5c-0.1,0.2-0.1,0.3-0.2,0.5c-0.5,0.2-1,0.4-1.3,0.4c-0.2,0-0.3,0-0.5-0.1c0,0.2,0,0.4-0.1,0.5
			c-0.1,0.1-0.1,0.3-0.2,0.4l-0.1,0c0-0.3,0-0.5,0-0.7c0-0.3-0.1-0.5-0.3-1.1c0.1-0.2,0.2-0.3,0.3-0.5l0,0c0,0.2,0.1,0.4,0.2,0.6
			c0,0.1,0.1,0.3,0.3,0.3c0.1,0,0.2,0,0.3,0l0,0c-0.1-0.1-0.2-0.3-0.2-0.4s0-0.3,0.1-0.5c0.2-0.3,0.4-0.5,0.6-0.5
			c0.3,0,0.5,0.2,0.7,0.5l-0.1,0.1c-0.1-0.1-0.3-0.2-0.5-0.2c-0.2,0-0.6,0.2-0.6,0.3c0,0.1,0.1,0.3,0.2,0.4c0.1,0.1,0.2,0.2,0.3,0.2
			C77.6,128.8,77.9,128.7,78.3,128.5L78.3,128.5z"/>
		<path class="st1" d="M76.5,133.5h2.2v4c0,0.6,0.6,0.8,1,0.8h3.2c0.8,0,1.2-0.3,1.2-1.1h-0.2c-1.6,0-2.6-0.8-2.9-2l2.2-0.6
			c0,0.8,0.1,1.2,0.7,1.2h3.3v1.5h-1v0c0,1.9-1.3,2.6-2.9,2.6h-3.7c-1.6,0-3-0.9-3-2.5V133.5z"/>
		<path class="st1" d="M91.7,137.2c-1.1,0-1.6-0.3-2-0.5c-0.4,0.3-1,0.5-2.1,0.5h-0.7v-1.5h1.3c0.2,0,0.4-0.1,0.5-0.2v-4.7h2.2v4.2
			c0,0.4,0.3,0.7,0.8,0.7h0.8v1.5H91.7z M90.7,129c0-0.5-0.4-0.8-0.9-0.8c-0.5,0-0.9,0.4-0.9,0.8c0,0.5,0.4,0.8,0.9,0.8
			C90.3,129.8,90.7,129.4,90.7,129z"/>
		<path class="st1" d="M93,139.8c-0.5,0-0.9-0.3-0.9-0.8c0-0.5,0.4-0.8,0.9-0.8c0.5,0,0.9,0.4,0.9,0.8
			C93.9,139.5,93.5,139.8,93,139.8z M97.9,137.2v-1.5h-0.8c-0.5,0-0.8-0.3-0.8-0.7v-4.2h-2.2v4.7c-0.1,0.1-0.3,0.2-0.5,0.2h-1.3v1.5
			H93c1.1,0,1.7-0.3,2.1-0.5c0.4,0.3,0.9,0.5,2,0.5H97.9z M95.4,139.8c-0.5,0-0.9-0.3-0.9-0.8c0-0.5,0.4-0.8,0.9-0.8
			c0.5,0,0.9,0.4,0.9,0.8C96.4,139.5,95.9,139.8,95.4,139.8z"/>
		<path class="st1" d="M108.7,135.2c0,0.4,0.3,0.6,0.8,0.6h0.8v1.5h-0.7c-0.8,0-1.4-0.2-1.7-0.4c-0.4,0.2-0.9,0.3-1.4,0.3
			c-1.1,0-1.7-0.3-2.1-0.5c-0.3,0.3-0.9,0.5-1.9,0.6c-1,0-1.5-0.3-1.9-0.5c-0.4,0.3-1,0.5-2.1,0.5h-0.7v-1.5H99
			c0.2,0,0.4-0.1,0.5-0.2v-4.7h2.2v4.8c0.2,0.1,0.3,0.2,0.5,0.2c0.5,0,0.7-0.3,0.7-0.6v-4.3h2.2v4.8c0.2,0.1,0.3,0.2,0.5,0.2
			c0.5,0,0.8-0.3,0.8-0.6v-4.3h2.2V135.2z"/>
		<path class="st1" d="M112.3,127.9c0.1,0,0.3,0,0.4,0c0.4,0,0.7-0.1,0.9-0.1c-0.1-0.2-0.2-0.4-0.2-0.5c0-0.3,0.2-0.7,0.7-0.7
			c0.5,0,0.7,0.4,0.7,0.7c0,0.7-0.9,1.1-1.6,1.1c-0.3,0-0.5,0-0.6-0.1L112.3,127.9z M114,127.7c0.2-0.1,0.4-0.2,0.4-0.5
			c0-0.2-0.1-0.2-0.2-0.2c-0.2,0-0.4,0.2-0.4,0.3C113.9,127.4,113.9,127.6,114,127.7z"/>
		<path class="st1" d="M114.1,135.8v-2.9c0-0.5-0.4-0.7-1-0.7c-0.6,0-1.3,0.2-1.7,0.4l-0.5-1.2c0.5-0.2,1.4-0.5,2.6-0.5
			c1.5,0,2.6,0.6,2.6,2.4v3.9h-6.2v-1.5H114.1z"/>
		<path class="st1" d="M123.5,142c-0.1,0.3-0.3,0.5-0.8,0.5h-1.9c0.2-0.3,0.5-0.5,0.7-0.5H123.5z"/>
		<path class="st1" d="M122.2,139.9c-1.6,0-3.3-0.9-3.3-2.5v-6.5h2.2v6.4c0,0.6,0.7,0.8,1.1,0.8c0.4,0,1.1-0.3,1.1-0.8v-6.4h2.2v6.4
			C125.5,138.9,123.9,139.9,122.2,139.9z M122.3,129.8c-0.5,0-0.9-0.3-0.9-0.8c0-0.5,0.4-0.8,0.9-0.8c0.5,0,0.9,0.4,0.9,0.8
			C123.3,129.4,122.8,129.8,122.3,129.8z"/>
		<path class="st1" d="M127.3,137.2v-9.1h2.2v9.1H127.3z"/>
		<path class="st1" d="M133.3,135.2c0,0.4,0.3,0.6,0.7,0.6h0.7v1.5h-0.6c-0.3,0-0.5,0-0.8-0.1v0.1c0,1.9-1.2,2.6-2.9,2.6
			c-0.4,0-0.9-0.1-1.3-0.1c0.2-0.9,0.2-0.8,0.4-1.4c0.1,0,0.3,0,0.5,0c0.8,0,1.2-0.5,1.2-1.1v-6.4h2.2V135.2z"/>
		<path class="st1" d="M142.2,130.8c1.5,0,2.7,1.3,2.7,3.4c0,1.9-1,3.1-2.1,3.1h-8.2v-1.5h1.3c0.2,0,0.4-0.1,0.5-0.2v-3.3h2.2
			l-0.1,1.4C139.5,131.9,140.6,130.8,142.2,130.8z M141.7,135.8c0.6-0.1,1.1-0.7,1.1-1.9c0-1.1-0.5-1.7-1-1.7c-0.8,0-2,0.8-3.2,3.6
			H141.7z"/>
		<path class="st1" d="M150.3,137.2h-0.9c-1.8,0-2.8-0.6-2.8-2.2v-6.8h2.2v7c0,0.3,0.2,0.6,0.7,0.6h0.8V137.2z"/>
		<path class="st1" d="M150.2,135.8h1.2c0.5,0,0.6-0.3,0.6-0.6v-4.3h2.2v4.1c0,1.6-1,2.2-2.8,2.2h-1.3V135.8z M154,129
			c0-0.5-0.4-0.8-0.9-0.8c-0.5,0-0.9,0.4-0.9,0.8c0,0.5,0.4,0.8,0.9,0.8C153.6,129.8,154,129.4,154,129z"/>
	</g>
	
		<rect x="161.7" y="123.1" transform="matrix(0.7071 -0.7071 0.7071 0.7071 -41.3797 154.5288)" class="st4" width="8.2" height="8.2"/>
	
		<rect x="161.7" y="134.7" transform="matrix(0.7071 -0.7071 0.7071 0.7071 -49.5566 157.9158)" class="st4" width="8.2" height="8.2"/>
</g>
</svg>
